:SAMPLES-PER-SECOND 25
:FULLY-SPECIFIED
:DEGREES
394
root  5.19503 39.7937 -97.49 0.762329 -4.60429 -1.45427
RightUpLeg  -4.25979 3.22319 6.4654
RightLeg  8.73723 -13.3113 -3.58839
RightFoot  -6.24621 0.00810777 -1.13949
RightToes  2.84633e-005 7.89722e-005 -0.000426369
Spine  3.0824 0.451127 2.46058
Spine1  6.18426 0.762213 5.04054
HEad  21.3828 -2.23759 -7.97382
LeftShoulder1  -3.88251e-019 0 -3.92111e-022
LeftArm  -34.1455 3.39414 -85.038
LeftForeArm  31.5831 1.98908 1.45287
LeftHand  -0.818044 -4.67331 9.71204
RightShoulder  7.45443e-017 -2.42657e-020 1.96277e-018
RightArm  -23.5952 -7.37838 72.3748
RightForeArm  29.3641 5.57872 7.6938
RightHand  -2.13214 11.8622 -14.6441
LeftUpLeg  -18.7985 -1.42137 -0.0529021
LeftLeg  7.43136 -3.97017 1.52668
LeftFoot  4.60406 -0.335033 2.18942
LeftToes  3.91355e-005 3.11907e-005 -4.10385e-006
395
root  5.10965 39.7469 -97.0903 0.773102 -4.7706 -1.66257
RightUpLeg  -3.71944 3.2817 6.74003
RightLeg  9.06682 -13.3207 -3.51919
RightFoot  -7.05546 -0.0273264 -0.546284
RightToes  2.84633e-005 7.89722e-005 -0.000426369
Spine  3.0288 0.536922 2.44766
Spine1  6.07721 0.940231 5.11382
HEad  21.9538 -1.82367 -8.13377
LeftShoulder1  -3.88251e-019 0 -3.92111e-022
LeftArm  -34.44 4.31201 -85.2566
LeftForeArm  31.0904 1.99024 1.6546
LeftHand  -0.806247 -4.8436 9.43287
RightShoulder  7.45443e-017 -2.42657e-020 1.96277e-018
RightArm  -23.7621 -7.42687 73.2814
RightForeArm  30.5242 4.60595 7.19639
RightHand  -2.16266 11.8879 -14.8254
LeftUpLeg  -19.2108 -0.918295 0.19294
LeftLeg  6.65899 -2.49323 1.61933
LeftFoot  5.38056 -0.329317 2.01944
LeftToes  3.91355e-005 3.11907e-005 -4.10385e-006
396
root  5.06186 39.7253 -96.628 0.516449 -5.42998 -1.73376
RightUpLeg  -2.81634 3.14308 6.76046
RightLeg  9.44281 -12.7783 -3.32574
RightFoot  -8.12457 -0.0596126 0.161299
RightToes  2.84633e-005 7.89722e-005 -0.000426369
Spine  3.1072 0.679316 2.4363
Spine1  6.23685 1.22056 5.17397
HEad  22.3739 -1.1874 -8.37316
LeftShoulder1  -3.88251e-019 0 -3.92111e-022
LeftArm  -34.8278 5.20847 -85.766
LeftForeArm  30.7113 2.01913 1.24655
LeftHand  -0.639866 -4.93741 7.48757
RightShoulder  7.45443e-017 -2.42657e-020 1.96277e-018
RightArm  -23.7516 -7.43517 73.8023
RightForeArm  32.2473 4.0957 7.19912
RightHand  -2.18604 11.8988 -14.9703
LeftUpLeg  -19.1774 -0.326495 0.612492
LeftLeg  6.16248 -1.02513 1.5466
LeftFoot  5.97788 -0.330873 1.9338
LeftToes  3.91355e-005 3.11907e-005 -4.10385e-006
397
root  5.02488 39.6679 -96.1036 0.211121 -5.68507 -1.90517
RightUpLeg  -1.88267 3.18242 6.97769
RightLeg  10.0597 -12.6199 -3.35823
RightFoot  -9.0638 -0.0655862 0.218875
RightToes  2.84633e-005 7.89722e-005 -0.000426369
Spine  3.16097 0.695755 2.47147
Spine1  6.34192 1.24435 5.30247
HEad  23.1526 -0.665676 -8.56137
LeftShoulder1  -3.88251e-019 0 -3.92111e-022
LeftArm  -35.0658 5.84993 -86.3247
LeftForeArm  30.9044 2.0136 1.25611
LeftHand  -0.775928 -4.52549 9.35881
RightShoulder  7.45443e-017 -2.42657e-020 1.96277e-018
RightArm  -23.937 -7.87541 74.2533
RightForeArm  32.415 4.15657 7.10518
RightHand  -2.2181 11.7227 -15.33
LeftUpLeg  -19.1789 0.0184623 1.07166
LeftLeg  6.11718 -1.22834 1.64038
LeftFoot  6.37058 -0.376779 2.16802
LeftToes  3.91355e-005 3.11907e-005 -4.10385e-006
398
root  5.03187 39.6266 -95.5227 -0.0337219 -5.74988 -1.91836
RightUpLeg  -0.682006 3.07548 6.96487
RightLeg  10.1848 -12.5154 -3.39383
RightFoot  -10.0568 -0.0750265 0.611952
RightToes  2.84633e-005 7.89722e-005 -0.000426369
Spine  3.17281 0.666562 2.41123
Spine1  6.35882 1.18379 5.23694
HEad  23.8615 -0.597009 -8.37755
LeftShoulder1  -3.88251e-019 0 -3.92111e-022
LeftArm  -34.8488 6.26164 -86.8486
LeftForeArm  30.58 2.01819 1.32019
LeftHand  -0.786526 -4.74518 9.29634
RightShoulder  7.45443e-017 -2.42657e-020 1.96277e-018
RightArm  -23.6978 -8.7539 74.4287
RightForeArm  31.7512 4.61188 7.40379
RightHand  -2.1371 11.6198 -14.8781
LeftUpLeg  -18.9271 0.251267 1.40279
LeftLeg  5.7201 -2.03074 1.81502
LeftFoot  7.04625 -0.434417 2.42111
LeftToes  3.91355e-005 3.11907e-005 -4.10385e-006
399
root  5.06171 39.5824 -94.9032 -0.149567 -6.20825 -2.00921
RightUpLeg  0.49634 2.93704 6.93105
RightLeg  10.1795 -11.9735 -3.2949
RightFoot  -11.0546 -0.077346 0.811705
RightToes  2.84633e-005 7.89722e-005 -0.000426369
Spine  3.15092 0.867539 2.34678
Spine1  6.32044 1.58349 5.15119
HEad  24.1905 -0.619646 -8.19424
LeftShoulder1  -3.88251e-019 0 -3.92111e-022
LeftArm  -34.84 5.91224 -87.1721
LeftForeArm  31.7669 1.97871 1.53119
LeftHand  -0.731732 -4.83457 8.59738
RightShoulder  7.45443e-017 -2.42657e-020 1.96277e-018
RightArm  -23.9998 -9.27487 74.5318
RightForeArm  32.1289 4.15043 7.23928
RightHand  -2.19517 11.7724 -15.1359
LeftUpLeg  -18.5486 0.815969 2.01877
LeftLeg  5.26818 -1.95988 1.81467
LeftFoot  7.43561 -0.533574 2.94972
LeftToes  3.91355e-005 3.11907e-005 -4.10385e-006
400
root  5.16667 39.5366 -94.2446 0.0870972 -6.54224 -1.9438
RightUpLeg  1.20789 2.62041 6.48429
RightLeg  10.4276 -11.2523 -3.13341
RightFoot  -12.2332 -0.072062 1.35524
RightToes  2.84633e-005 7.89722e-005 -0.000426369
Spine  3.00247 0.906461 2.29051
Spine1  6.01806 1.66573 5.12969
HEad  24.1562 -0.203965 -8.46721
LeftShoulder1  -3.88251e-019 0 -3.92111e-022
LeftArm  -35.3348 5.79664 -87.1309
LeftForeArm  33.2323 1.94654 1.42809
LeftHand  -0.687441 -4.45884 8.38063
RightShoulder  7.45443e-017 -2.42657e-020 1.96277e-018
RightArm  -24.1699 -9.16103 74.5177
RightForeArm  33.5487 3.20751 6.42336
RightHand  -2.09977 11.5584 -14.6768
LeftUpLeg  -18.1889 1.22208 2.40917
LeftLeg  4.37787 -0.114798 1.80543
LeftFoot  7.23179 -0.556719 3.13447
LeftToes  3.91355e-005 3.11907e-005 -4.10385e-006
